# xmcd
#
# Track frame offsets:
#	150
#	12764
#	25129
#	41344
#	60492
#	76513
#	91320
#	103346
#	115957
#	125514
#	138378
#	151679
#
# Disc length: 2230 seconds
#
# Revision: 1
# Processed by: cddbd v1.5.2PL0 Copyright (c) Steve Scherf et al.
# Submitted via: EasyCDDAExtractor 7.0.6.1
#
DISCID=8708b40c
DTITLE=i heart hiroshima - tuff teef
DYEAR=2007
DGENRE=Pop
TTITLE0=lungs
TTITLE1=surgery
TTITLE2=punks
TTITLE3=teef
TTITLE4=crook'd
TTITLE5=electric lake
TTITLE6=crime
TTITLE7=wires
TTITLE8=got bones?
TTITLE9=throw that metal
TTITLE10=captain to captain
TTITLE11=stop that
EXTD=
EXTT0=
EXTT1=
EXTT2=
EXTT3=
EXTT4=
EXTT5=
EXTT6=
EXTT7=
EXTT8=
EXTT9=
EXTT10=
EXTT11=
PLAYORDER=
